<svg xmlns="http://www.w3.org/2000/svg" viewBox="0 0 192 192" role="img" aria-labelledby="m-sprout-dot-mark-title m-sprout-dot-mark-desc">
  <title id="m-sprout-dot-mark-title">M Sprout Dot — Memes-Database mark</title>
  <desc id="m-sprout-dot-mark-desc">The selected M Indexed Grin geometry and palette, with only a soft pistachio dot added beside the upper-right of the ivory M on the purple index tab. Dot center 128, 27; radius 5. Transparent canvas.</desc>
  <g id="m-sprout-dot-mark">
    <rect x="28" y="22" width="133" height="144" rx="24" fill="#5040DC" transform="rotate(-10 94 94)"/>
    <rect x="35" y="29" width="133" height="144" rx="24" fill="#B8B0F1" transform="rotate(8 101 101)"/>
    <path d="M66 17 H125 Q139 17 139 31 V76 H52 V31 Q52 17 66 17Z" fill="#5040DC"/>
    <path d="M68 57 V29 H78 L95 43 L112 29 H122 V57 H111 V44 L95 57 L79 44 V57Z" fill="#FFF5ED"/>
    <circle id="m-sprout-dot-green-accent" cx="128" cy="27" r="5" fill="#BCE3AF"/>
    <rect x="20" y="67" width="144" height="111" rx="26" fill="#FF785D"/>
    <path d="M48 104 Q58 93 68 104 M116 104 Q126 93 136 104" fill="none" stroke="#25213D" stroke-width="10" stroke-linecap="round"/>
    <path d="M51 128 H133 C125 165 59 165 51 128Z" fill="#25213D"/>
    <path d="M62 128 H122 L117 139 H67Z" fill="#FFF5ED"/>
  </g>
</svg>
